<svg width="425" height="139" viewBox="0 0 425 139" fill="none" xmlns="http://www.w3.org/2000/svg">
<path d="M12.375 96.0469C8.90625 96.0469 6.21875 95.125 4.3125 93.2812C2.4375 91.4375 1.5 88.6562 1.5 84.9375V39.0938C3.15625 37.6875 5.17188 36.6094 7.54688 35.8594C9.95312 35.0781 12.4375 34.6875 15 34.6875C18.7812 34.6875 21.9844 35.625 24.6094 37.5C27.4531 39.625 28.875 42.5625 28.875 46.3125V71.9531C27.125 72.1094 25.4062 72.6094 23.7188 73.4531C22.0312 74.2656 21.1875 75.1094 21.1875 75.9844C21.1875 76.5156 21.4844 76.9688 22.0781 77.3438C25.1719 74.75 29.7656 73.4531 35.8594 73.4531H46.9688C49.0312 77.0781 50.0625 80.7812 50.0625 84.5625C50.0625 86.4375 49.7344 88.5156 49.0781 90.7969C48.4219 93.0781 47.5469 94.8281 46.4531 96.0469H12.375ZM98.9531 72.7969C98.9531 75.0469 99.2031 76.8594 99.7031 78.2344C100.203 79.6094 101.078 80.6875 102.328 81.4688C102.359 81.625 102.375 81.9219 102.375 82.3594V83.2031C102.375 87.6406 101.031 91.0938 98.3438 93.5625C95.9688 95.75 93.0312 96.8438 89.5312 96.8438C87.1562 96.8438 84.9844 96.2812 83.0156 95.1562C81.0469 94.0312 79.6406 92.4062 78.7969 90.2812C77.7344 90.2812 77.2031 90.7969 77.2031 91.8281C77.2031 92.7031 77.75 93.6875 78.8438 94.7812C76.8125 96.1562 73.75 96.8438 69.6562 96.8438C63.875 96.8438 59.25 95.2812 55.7812 92.1562C52.3438 89 50.625 84.6094 50.625 78.9844C50.625 73.3281 52.4531 68.9531 56.1094 65.8594C59.4531 63.0781 63.7812 61.6875 69.0938 61.6875C70.9062 61.6875 72.6562 61.8125 74.3438 62.0625C75.4688 62.2812 76.0781 62.4062 76.1719 62.4375C76.2656 62.125 76.3125 61.8594 76.3125 61.6406C76.3125 60.8281 75.625 60.2812 74.25 60C72.875 59.7188 71.0781 59.5781 68.8594 59.5781C64.1406 59.5781 60.1094 60.5312 56.7656 62.4375C55.2344 59.8438 54.4688 56.5625 54.4688 52.5938C54.4688 50.3438 54.75 48.6719 55.3125 47.5781C57.5625 46.5469 60.4219 45.6406 63.8906 44.8594C67.3594 44.0469 71.0156 43.6406 74.8594 43.6406C82.7969 43.6406 88.7969 45.375 92.8594 48.8438C96.9219 52.3125 98.9531 57.2344 98.9531 63.6094V72.7969ZM74.625 75.0938C73.3125 75.0938 72.6562 75.6875 72.6562 76.875C72.6562 78 73.4219 78.5625 74.9531 78.5625C76.0156 78.5625 76.7969 78.3125 77.2969 77.8125C77.7969 77.2812 78.0469 76.375 78.0469 75.0938C78.0469 75.0938 76.9062 75.0938 74.625 75.0938ZM130.359 62.3906C130.359 61.2656 129.938 60.7031 129.094 60.7031C128.312 60.7031 127.922 61.1719 127.922 62.1094V66.9375C128.172 67.1562 128.547 67.2656 129.047 67.2656C129.547 67.2656 129.891 67.0781 130.078 66.7031C130.266 66.3281 130.359 65.6406 130.359 64.6406V62.3906ZM132.094 81.375C130.094 81.375 128.391 81.2344 126.984 80.9531C126.891 81.2344 126.844 81.5 126.844 81.75C126.844 82.4375 127.328 82.9062 128.297 83.1562C129.297 83.375 130.562 83.4844 132.094 83.4844C136.969 83.4844 141.125 82.7656 144.562 81.3281C147.938 82.2031 150.562 84.1094 152.438 87.0469C153.969 89.4531 154.734 92.2812 154.734 95.5312C154.734 101.312 152.281 105.812 147.375 109.031C142.469 112.25 136.141 113.859 128.391 113.859C120.672 113.859 114.703 112.484 110.484 109.734C106.578 107.234 104.625 103.984 104.625 99.9844C104.625 98.4531 104.984 96.9844 105.703 95.5781C106.422 94.1406 107.25 93.1562 108.188 92.625C109.75 93.9375 112.047 95 115.078 95.8125C118.141 96.625 121.281 97.0312 124.5 97.0312C127.719 97.0312 129.781 96.9062 130.688 96.6562C131.625 96.4062 132.094 95.9688 132.094 95.3438C132.094 95.0312 132 94.7188 131.812 94.4062C130.25 94.75 128.297 94.9219 125.953 94.9219C119.922 94.9219 115.188 94.0625 111.75 92.3438C107.562 90.2812 105.469 87.1719 105.469 83.0156C105.469 81.3906 105.797 79.8906 106.453 78.5156C107.109 77.1094 108.078 76.0625 109.359 75.375C107.641 74.3125 106.172 72.7031 104.953 70.5469C103.766 68.3906 103.172 65.7344 103.172 62.5781C103.172 56.5781 105.422 51.8438 109.922 48.375C114.422 44.9062 120.266 43.1719 127.453 43.1719C130.922 43.1719 134.266 43.75 137.484 44.9062V41.625C139.328 40.9062 141.766 40.5469 144.797 40.5469C147.859 40.5469 150.188 41.0625 151.781 42.0938C153.719 43.3438 154.688 45.5469 154.688 48.7031C154.688 50.4531 154.5 51.8594 154.125 52.9219C153.781 53.9844 153.266 55.0938 152.578 56.25C153.391 58.3125 153.797 60.875 153.797 63.9375C153.797 69.4688 151.828 73.7656 147.891 76.8281C143.984 79.8594 138.719 81.375 132.094 81.375ZM183.703 97.4531C175.047 97.4531 168.219 95.0469 163.219 90.2344C158.094 85.3906 155.531 78.7656 155.531 70.3594C155.531 61.9219 158.172 55.2344 163.453 50.2969C168.328 45.7031 174.5 43.4062 181.969 43.4062C189.438 43.4062 195.422 45.4688 199.922 49.5938C204.453 53.6875 206.719 58.7344 206.719 64.7344C206.719 70.0781 204.859 74.1094 201.141 76.8281C197.703 79.3906 193.016 80.6719 187.078 80.6719C182.641 80.6719 178.891 79.75 175.828 77.9062C175.578 78.0938 175.453 78.4375 175.453 78.9375C175.453 79.875 176.688 80.7344 179.156 81.5156C181.625 82.3594 184.422 82.7812 187.547 82.7812C190.703 82.7812 193.562 82.3906 196.125 81.6094C198.719 80.7969 200.797 79.8438 202.359 78.75C203.109 79.4062 203.703 80.625 204.141 82.4062C204.609 84.1562 204.844 85.7656 204.844 87.2344C204.844 88.6719 204.703 89.9531 204.422 91.0781C201.984 93.1406 199.484 94.6094 196.922 95.4844C193.297 96.7969 188.891 97.4531 183.703 97.4531ZM183.094 65.7188C184.656 65.7188 185.438 65.125 185.438 63.9375C185.438 62.8125 184.609 62.25 182.953 62.25C181.297 62.25 180.344 63.1406 180.094 64.9219C180.969 65.4531 181.969 65.7188 183.094 65.7188ZM222.891 96.6094C219.172 96.6094 216.203 95.9375 213.984 94.5938C211.516 93.1875 210.281 91.1094 210.281 88.3594V64.2188C208.438 61.625 207.516 58.4375 207.516 54.6562C207.516 50.8438 208.438 47.5469 210.281 44.7656H217.453C221.141 44.7656 223.781 45.9531 225.375 48.3281C224.594 49.2031 223.906 50.3125 223.312 51.6562C222.719 53 222.422 53.9688 222.422 54.5625C222.422 55.125 222.562 55.5469 222.844 55.8281C223.156 56.1094 223.594 56.25 224.156 56.25C225.25 51.9062 227.328 48.7188 230.391 46.6875C232.922 44.9688 236.047 44.1094 239.766 44.1094C244.391 44.1094 248.016 45.0938 250.641 47.0625C251.578 49.5625 252.047 52.625 252.047 56.25C252.047 59.8438 251.328 63.1094 249.891 66.0469C248.828 66.6094 247.359 67.0938 245.484 67.5C243.609 67.875 241.719 68.0625 239.812 68.0625C237.906 68.0625 236.188 67.9375 234.656 67.6875C233.156 67.4062 232.062 67.1562 231.375 66.9375C231.125 67.1875 231 67.5469 231 68.0156C231 68.4844 231.297 68.8438 231.891 69.0938C232.516 69.3125 233.547 69.5625 234.984 69.8438V93.375C231.578 95.5312 227.547 96.6094 222.891 96.6094Z" fill="#121619"/>
<path d="M28.544 91.904C30.9333 91.8187 32.8107 92.3093 34.176 93.376C35.584 94.4 36.288 95.8293 36.288 97.664C36.288 98.3893 36.2027 99.072 36.032 99.712C30.4 106.197 24.0853 111.36 17.088 115.2C19.4773 117.504 22.1867 119.637 25.216 121.6C28.288 123.563 31.232 125.099 34.048 126.208C34.176 126.891 34.24 127.573 34.24 128.256C34.24 130.261 33.6427 131.989 32.448 133.44C31.296 134.848 29.632 135.701 27.456 136C24.3413 134.165 21.6747 132.053 19.456 129.664C17.2373 127.232 14.976 124.203 12.672 120.576C12.288 126.037 11.904 129.984 11.52 132.416C11.136 134.805 10.5173 136 9.664 136C8.68267 136 7.50933 135.659 6.144 134.976C4.82133 134.251 3.648 133.397 2.624 132.416C1.64267 131.435 1.152 130.624 1.152 129.984C1.10933 129.301 1.30133 127.872 1.728 125.696C2.19733 123.477 2.496 122.048 2.624 121.408C2.79467 120.555 3.11467 118.997 3.584 116.736C4.05333 114.432 4.43733 112.299 4.736 110.336L5.248 107.328C6.05867 102.549 6.80533 98.6667 7.488 95.68C8.21333 92.6933 8.93867 91.2 9.664 91.2C10.4747 91.2 11.5627 91.5627 12.928 92.288C14.336 93.0133 15.552 93.8667 16.576 94.848C17.6427 95.8293 18.176 96.6827 18.176 97.408C18.176 97.8773 17.792 99.3493 17.024 101.824C16.256 104.299 15.5307 106.432 14.848 108.224C17.408 106.048 19.6693 103.723 21.632 101.248C23.6373 98.7733 25.9413 95.6587 28.544 91.904ZM52.0415 99.84C55.0708 100.181 57.8228 101.099 60.2975 102.592C62.8148 104.043 64.7775 105.792 66.1855 107.84C67.5935 109.888 68.2975 111.936 68.2975 113.984C68.2975 117.056 67.5082 120.32 65.9295 123.776C64.3508 127.232 62.1535 130.133 59.3375 132.48C56.5215 134.827 53.3855 136 49.9295 136C48.2228 136 46.4095 135.381 44.4895 134.144C42.5695 132.864 40.9482 131.328 39.6255 129.536C38.3455 127.701 37.7055 126.08 37.7055 124.672C37.7055 122.069 38.0255 119.403 38.6655 116.672C39.3055 113.899 40.2868 111.211 41.6095 108.608C42.8468 107.925 44.0842 107.584 45.3215 107.584C45.8762 107.584 46.3882 107.648 46.8575 107.776C46.6868 107.264 46.6015 106.667 46.6015 105.984C46.6015 104.619 47.0708 103.381 48.0095 102.272C48.9908 101.163 50.3348 100.352 52.0415 99.84ZM47.6255 128.704C51.1668 127.509 53.9188 125.461 55.8815 122.56C57.8442 119.659 59.1455 116.203 59.7855 112.192C57.8655 110.827 55.2628 110.144 51.9775 110.144C51.1668 110.144 50.5482 110.165 50.1215 110.208C50.5908 111.061 50.8255 112.021 50.8255 113.088C49.7162 114.837 48.8628 116.779 48.2655 118.912C47.6682 121.003 47.3695 123.115 47.3695 125.248C47.3695 126.528 47.4548 127.68 47.6255 128.704ZM104.249 122.496C106.126 123.136 107.513 124.032 108.409 125.184C109.348 126.293 109.817 127.573 109.817 129.024C109.817 130.048 109.092 131.115 107.641 132.224C106.19 133.291 104.462 134.187 102.457 134.912C100.452 135.637 98.745 136 97.337 136C96.3557 136 95.225 135.616 93.945 134.848C92.665 134.08 91.5557 133.205 90.617 132.224C89.721 131.2 89.273 130.411 89.273 129.856C89.273 129.429 89.7423 127.765 90.681 124.864C92.345 119.787 93.177 116.587 93.177 115.264C93.177 114.752 93.049 114.496 92.793 114.496C91.0863 114.496 87.9077 117.483 83.257 123.456C83.0863 124.139 82.8943 124.992 82.681 126.016C82.5103 127.04 82.3823 127.765 82.297 128.192C81.8277 130.709 81.3797 132.651 80.953 134.016C80.569 135.339 80.057 136 79.417 136C78.3077 136 77.049 135.637 75.641 134.912C74.2757 134.144 73.081 133.269 72.057 132.288C71.0757 131.264 70.585 130.411 70.585 129.728C70.585 128.96 70.8623 127.829 71.417 126.336C71.9717 124.843 72.8037 122.795 73.913 120.192C74.7663 118.187 75.4063 116.629 75.833 115.52C76.2597 114.368 76.473 113.557 76.473 113.088C76.473 112.747 76.2597 112.384 75.833 112C75.449 111.573 74.8517 111.061 74.041 110.464C73.1023 109.739 72.3983 109.163 71.929 108.736C71.5023 108.309 71.289 107.861 71.289 107.392C71.289 106.496 71.6943 105.451 72.505 104.256C73.3583 103.061 74.3397 102.037 75.449 101.184C76.601 100.331 77.5823 99.904 78.393 99.904C79.289 99.904 80.313 100.309 81.465 101.12C82.6597 101.931 83.6837 102.869 84.537 103.936C85.433 104.96 85.881 105.749 85.881 106.304C85.881 107.328 85.753 108.587 85.497 110.08C85.2837 111.573 84.985 113.045 84.601 114.496C87.7157 110.4 90.297 107.243 92.345 105.024C94.393 102.763 95.993 101.632 97.145 101.632C97.9557 101.632 98.937 102.037 100.089 102.848C101.241 103.659 102.222 104.597 103.033 105.664C103.886 106.688 104.313 107.477 104.313 108.032C104.27 108.757 103.972 109.995 103.417 111.744C102.862 113.493 102.073 115.819 101.049 118.72C99.6837 122.475 98.809 125.013 98.425 126.336C99.7477 125.653 100.772 125.077 101.497 124.608C102.265 124.096 103.182 123.392 104.249 122.496ZM126.915 110.848C125.507 117.291 124.59 122.539 124.163 126.592C126.894 125.269 129.091 123.904 130.755 122.496C132.632 123.136 134.019 124.032 134.915 125.184C135.854 126.293 136.323 127.573 136.323 129.024C136.323 130.048 135.598 131.115 134.147 132.224C132.696 133.291 130.968 134.187 128.963 134.912C126.958 135.637 125.251 136 123.843 136C122.606 136 121.219 135.637 119.683 134.912C118.19 134.144 116.91 133.269 115.843 132.288C114.776 131.264 114.243 130.389 114.243 129.664C114.243 129.067 114.456 127.787 114.883 125.824C115.352 123.819 115.758 122.112 116.099 120.704C116.483 119.253 116.76 118.187 116.931 117.504L118.467 111.36L114.563 111.616C113.838 111.275 113.283 110.741 112.899 110.016C112.515 109.291 112.323 108.459 112.323 107.52C112.323 105.813 112.942 104.363 114.179 103.168C115.715 103.253 117.592 103.339 119.811 103.424C119.811 100.693 120.11 97.6853 120.707 94.4C121.304 91.072 121.966 89.408 122.691 89.408C123.587 89.408 124.718 89.792 126.083 90.56C127.448 91.328 128.643 92.224 129.667 93.248C130.691 94.272 131.203 95.168 131.203 95.936C131.203 96.9173 131.011 97.92 130.627 98.944C130.286 99.9253 129.71 101.291 128.899 103.04C129.624 102.955 131.459 102.656 134.403 102.144L135.875 101.888C136.643 102.315 137.219 102.933 137.603 103.744C138.03 104.555 138.243 105.429 138.243 106.368C138.243 107.136 138.094 107.883 137.795 108.608C137.496 109.333 137.048 109.952 136.451 110.464L126.915 110.848ZM151.017 136C149.865 136 148.606 135.637 147.241 134.912C145.876 134.144 144.702 133.269 143.721 132.288C142.74 131.264 142.249 130.411 142.249 129.728C142.249 128.917 142.42 127.872 142.761 126.592C143.102 125.269 143.614 123.563 144.297 121.472C144.98 119.296 145.492 117.568 145.833 116.288C146.174 114.965 146.345 113.899 146.345 113.088C146.345 112.747 146.153 112.384 145.769 112C145.385 111.616 144.788 111.104 143.977 110.464C143.038 109.696 142.356 109.099 141.929 108.672C141.502 108.245 141.289 107.819 141.289 107.392C141.289 106.496 141.716 105.451 142.569 104.256C143.422 103.061 144.425 102.037 145.577 101.184C146.729 100.331 147.71 99.904 148.521 99.904C149.417 99.904 150.441 100.309 151.593 101.12C152.745 101.931 153.748 102.869 154.601 103.936C155.454 104.96 155.881 105.749 155.881 106.304C155.881 107.925 155.561 110.059 154.921 112.704L155.689 113.088C156.67 111.509 157.737 109.632 158.889 107.456C160.084 105.237 160.809 103.872 161.065 103.36L162.281 101.056C165.225 100.971 167.422 101.504 168.873 102.656C170.324 103.808 171.049 105.344 171.049 107.264C171.049 109.141 170.43 111.019 169.193 112.896C166.121 113.92 163.497 114.944 161.321 115.968C159.188 116.949 157.033 118.123 154.857 119.488C154.729 124.224 154.345 128.171 153.705 131.328C153.108 134.443 152.212 136 151.017 136ZM186.167 99.84C189.196 100.181 191.948 101.099 194.423 102.592C196.94 104.043 198.903 105.792 200.311 107.84C201.719 109.888 202.423 111.936 202.423 113.984C202.423 117.056 201.633 120.32 200.055 123.776C198.476 127.232 196.279 130.133 193.463 132.48C190.647 134.827 187.511 136 184.055 136C182.348 136 180.535 135.381 178.615 134.144C176.695 132.864 175.073 131.328 173.751 129.536C172.471 127.701 171.831 126.08 171.831 124.672C171.831 122.069 172.151 119.403 172.791 116.672C173.431 113.899 174.412 111.211 175.735 108.608C176.972 107.925 178.209 107.584 179.447 107.584C180.001 107.584 180.513 107.648 180.983 107.776C180.812 107.264 180.727 106.667 180.727 105.984C180.727 104.619 181.196 103.381 182.135 102.272C183.116 101.163 184.46 100.352 186.167 99.84ZM181.751 128.704C185.292 127.509 188.044 125.461 190.007 122.56C191.969 119.659 193.271 116.203 193.911 112.192C191.991 110.827 189.388 110.144 186.103 110.144C185.292 110.144 184.673 110.165 184.247 110.208C184.716 111.061 184.951 112.021 184.951 113.088C183.841 114.837 182.988 116.779 182.391 118.912C181.793 121.003 181.495 123.115 181.495 125.248C181.495 126.528 181.58 127.68 181.751 128.704ZM213.862 136C212.625 136 211.238 135.637 209.702 134.912C208.209 134.144 206.929 133.269 205.862 132.288C204.795 131.264 204.262 130.389 204.262 129.664C204.262 128.939 204.561 127.147 205.158 124.288C205.755 121.429 206.139 119.595 206.31 118.784C207.59 112.896 208.443 108.821 208.87 106.56L209.51 102.976C210.406 98.0267 211.217 94.0373 211.942 91.008C212.71 87.9787 213.478 86.464 214.246 86.464C215.142 86.464 216.315 86.848 217.766 87.616C219.259 88.384 220.561 89.28 221.67 90.304C222.779 91.328 223.334 92.224 223.334 92.992C223.334 94.016 223.142 95.0187 222.758 96C222.417 96.9387 221.883 98.176 221.158 99.712C220.475 101.035 220.006 102.059 219.75 102.784C218.939 105.301 218.065 108.8 217.126 113.28C216.23 117.76 215.483 122.091 214.886 126.272C216.251 125.589 217.318 125.013 218.086 124.544C218.854 124.032 219.75 123.349 220.774 122.496C222.651 123.136 224.038 124.032 224.934 125.184C225.873 126.293 226.342 127.573 226.342 129.024C226.342 130.048 225.617 131.115 224.166 132.224C222.715 133.291 220.987 134.187 218.982 134.912C216.977 135.637 215.27 136 213.862 136ZM238.487 136C237.25 136 235.863 135.637 234.327 134.912C232.834 134.144 231.554 133.269 230.487 132.288C229.42 131.264 228.887 130.389 228.887 129.664C228.887 128.939 229.186 127.147 229.783 124.288C230.38 121.429 230.764 119.595 230.935 118.784C232.215 112.896 233.068 108.821 233.495 106.56L234.135 102.976C235.031 98.0267 235.842 94.0373 236.567 91.008C237.335 87.9787 238.103 86.464 238.871 86.464C239.767 86.464 240.94 86.848 242.391 87.616C243.884 88.384 245.186 89.28 246.295 90.304C247.404 91.328 247.959 92.224 247.959 92.992C247.959 94.016 247.767 95.0187 247.383 96C247.042 96.9387 246.508 98.176 245.783 99.712C245.1 101.035 244.631 102.059 244.375 102.784C243.564 105.301 242.69 108.8 241.751 113.28C240.855 117.76 240.108 122.091 239.511 126.272C240.876 125.589 241.943 125.013 242.711 124.544C243.479 124.032 244.375 123.349 245.399 122.496C247.276 123.136 248.663 124.032 249.559 125.184C250.498 126.293 250.967 127.573 250.967 129.024C250.967 130.048 250.242 131.115 248.791 132.224C247.34 133.291 245.612 134.187 243.607 134.912C241.602 135.637 239.895 136 238.487 136Z" fill="#C86BFA"/>
</svg>
